<?xml version="1.0" encoding="utf-8"?>
<svg viewBox="0 0 500 500" xmlns="http://www.w3.org/2000/svg" xmlns:xlink="http://www.w3.org/1999/xlink" xmlns:bx="https://boxy-svg.com">
  <defs>
    <linearGradient id="color-0-0" gradientUnits="userSpaceOnUse" x1="250" y1="0" x2="250" y2="500" gradientTransform="matrix(1, 0, 0, 1, -0.000319, 0.000194)" xlink:href="#color-0"/>
    <linearGradient id="color-0" bx:pinned="true">
      <stop style="stop-color: rgb(255, 0, 115);" offset="0"/>
      <stop style="stop-color: rgb(136, 0, 255);" offset="1"/>
    </linearGradient>
  </defs>
  <ellipse style="fill-rule: nonzero; fill: url(#color-0-0);" cx="250" cy="250" rx="250" ry="250" transform="matrix(0.939692, -0.342023, 0.342018, 0.939693, -70.427414, 100.582162)" bx:origin="0.5 0.5"/>
  <path d="M 382.813 150.64 L 379.986 130.985 L 365.435 138.134 C 337.438 151.862 308.639 150.14 278.751 147.771 C 248.759 145.394 215.691 146.04 187.189 158.392 C 156.497 171.021 135.705 192.324 129.972 224.082 C 126.324 244.275 125.151 273.559 150.269 311.733 C 167.713 299.512 176.095 305.001 192.8 285.839 C 206.636 266.171 224.01 225.589 246.423 215.748 C 268.021 206.224 291.618 201.725 315.324 202.593 C 278.873 198.83 248.756 209.979 217.614 228.66 C 208.328 234.303 178.835 234.974 171.306 242.698 C 164.118 250.419 172.157 261.883 166.765 270.869 C 156.648 289.654 149.444 309.781 145.386 330.592 C 141.016 351.484 138.646 372.702 138.305 394 L 165.541 394 C 166.821 374.9 169.501 355.904 173.573 337.171 C 192.474 347.022 213.647 352.06 235.121 351.771 C 255.152 351.758 274.965 347.865 293.402 340.327 C 397.027 297.573 386.395 175.665 382.813 150.64 Z" style="fill: rgb(255, 255, 255);" bx:origin="0.495887 0.499158"/>
</svg>